<svg width="152" height="32" viewBox="0 0 152 32" fill="none" xmlns="http://www.w3.org/2000/svg">
<path d="M48.024 17.584V15.808C48.024 12.88 47.88 11.032 47.592 10.264C47.272 9.384 46.816 8.84 46.224 8.632C45.888 8.504 45.48 8.44 45 8.44C44.52 8.44 44.104 8.504 43.752 8.632C43.416 8.76 43.136 8.984 42.912 9.304C42.688 9.624 42.504 9.96 42.36 10.312C42.232 10.664 42.128 11.16 42.048 11.8C41.952 12.728 41.904 14.096 41.904 15.904V17.632C41.904 19.584 41.976 20.976 42.12 21.808C42.28 22.624 42.472 23.208 42.696 23.56C43.192 24.344 43.96 24.736 45 24.736C46.264 24.736 47.08 24.208 47.448 23.152C47.832 22.08 48.024 20.224 48.024 17.584ZM44.952 25.24C42.28 25.24 40.28 24.52 38.952 23.08C37.64 21.624 36.984 19.528 36.984 16.792C36.984 14.04 37.688 11.88 39.096 10.312C40.52 8.728 42.528 7.936 45.12 7.936C47.712 7.936 49.664 8.688 50.976 10.192C52.304 11.68 52.968 13.8 52.968 16.552C52.968 19.304 52.296 21.44 50.952 22.96C49.624 24.48 47.624 25.24 44.952 25.24ZM54.8471 7H60.7271V24.568H62.0711V25H54.9431V24.568H56.2631V7.432H54.8471V7ZM67.4089 20.032C67.4089 21.712 67.4969 22.832 67.6729 23.392C67.8489 23.936 68.1689 24.208 68.6329 24.208C69.1129 24.208 69.5209 24 69.8569 23.584C70.2089 23.168 70.3849 22.552 70.3849 21.736V16.504C70.3849 15.816 70.2489 15.232 69.9769 14.752C69.7049 14.272 69.3049 14.032 68.7769 14.032C68.2489 14.032 67.8889 14.384 67.6969 15.088C67.5049 15.792 67.4089 17.024 67.4089 18.784V20.032ZM70.6969 25L70.4329 23.32C69.8889 24.6 68.7849 25.24 67.1209 25.24C65.7449 25.24 64.6729 24.744 63.9049 23.752C63.1529 22.76 62.7769 21.28 62.7769 19.312C62.7769 15.328 64.3609 13.336 67.5289 13.336C68.9369 13.336 69.8649 13.728 70.3129 14.512V7.432H68.8489V7H74.8489V24.568H76.0249V25H70.6969ZM77.6063 18.328V17.608H83.6543V18.328H77.6063ZM94.4438 8.416C91.9638 8.416 90.7238 10.808 90.7238 15.592V17.488C90.7238 19.76 91.0518 21.544 91.7078 22.84C92.3638 24.12 93.3318 24.76 94.6118 24.76C96.3718 24.76 97.9878 23.048 99.4598 19.624H99.8918L99.7238 24.976H99.4598C99.3638 24.8 99.2758 24.68 99.1958 24.616C99.1158 24.536 98.9958 24.496 98.8358 24.496C98.6918 24.496 98.1158 24.624 97.1078 24.88C96.0998 25.12 95.0758 25.24 94.0358 25.24C91.4278 25.24 89.4038 24.536 87.9638 23.128C86.5398 21.72 85.8278 19.608 85.8278 16.792C85.8278 13.96 86.5718 11.776 88.0598 10.24C89.5638 8.704 91.5798 7.936 94.1078 7.936C95.0838 7.936 96.0358 8.064 96.9637 8.32C97.9078 8.56 98.4598 8.68 98.6198 8.68C98.7798 8.68 98.8998 8.648 98.9798 8.584C99.0598 8.504 99.1478 8.376 99.2438 8.2H99.5078L99.6998 13.408H99.2678C98.5478 11.792 97.8038 10.56 97.0358 9.712C96.2838 8.848 95.4198 8.416 94.4438 8.416ZM107.414 19.36H108.11V17.512C108.11 15.992 108.022 14.976 107.846 14.464C107.686 13.936 107.366 13.672 106.886 13.672C106.598 13.672 106.334 13.752 106.094 13.912C105.87 14.056 105.758 14.264 105.758 14.536C105.758 14.792 105.806 15.056 105.902 15.328H106.502C106.63 15.664 106.694 16.072 106.694 16.552C106.694 17.016 106.494 17.424 106.094 17.776C105.694 18.112 105.19 18.28 104.582 18.28C103.206 18.28 102.518 17.616 102.518 16.288C102.518 14.32 104.19 13.336 107.534 13.336C109.438 13.336 110.75 13.664 111.47 14.32C112.206 14.96 112.574 16.144 112.574 17.872V22.744C112.574 23.576 112.806 23.992 113.27 23.992C113.814 23.992 114.134 23.168 114.23 21.52L114.59 21.544C114.526 22.952 114.262 23.92 113.798 24.448C113.334 24.976 112.574 25.24 111.518 25.24C109.598 25.24 108.494 24.648 108.206 23.464C107.998 24.072 107.686 24.52 107.27 24.808C106.854 25.096 106.246 25.24 105.446 25.24C103.078 25.24 101.894 24.272 101.894 22.336C101.894 21.2 102.342 20.424 103.238 20.008C104.15 19.576 105.542 19.36 107.414 19.36ZM106.454 22.312C106.454 23.144 106.494 23.68 106.574 23.92C106.67 24.16 106.838 24.28 107.078 24.28C107.334 24.28 107.566 24.08 107.774 23.68C107.998 23.264 108.11 22.696 108.11 21.976V19.744H107.942C106.95 19.744 106.454 20.472 106.454 21.928V22.312ZM122.842 14.248C122.25 14.248 121.73 14.632 121.282 15.4C120.834 16.168 120.61 17.08 120.61 18.136V24.568H122.314V25H114.826V24.568H116.146V14.008H114.826V13.576H120.61V15.88C120.818 15.064 121.218 14.44 121.81 14.008C122.402 13.56 123.074 13.336 123.826 13.336C124.578 13.336 125.186 13.552 125.65 13.984C126.13 14.4 126.37 15 126.37 15.784C126.37 16.552 126.194 17.144 125.842 17.56C125.49 17.976 124.946 18.184 124.21 18.184C123.49 18.184 122.954 17.944 122.602 17.464C122.266 16.984 122.226 16.32 122.482 15.472H123.346C123.746 14.656 123.578 14.248 122.842 14.248ZM132.904 25.24C130.84 25.24 129.288 24.712 128.248 23.656C127.224 22.584 126.712 21.104 126.712 19.216C126.712 17.312 127.288 15.856 128.44 14.848C129.608 13.84 131.088 13.336 132.88 13.336C136.512 13.336 138.256 15.16 138.112 18.808H131.344V19.744C131.344 21.312 131.544 22.496 131.944 23.296C132.344 24.096 133.04 24.496 134.032 24.496C135.888 24.496 137.104 23.504 137.68 21.52L138.112 21.592C137.808 22.744 137.256 23.64 136.456 24.28C135.672 24.92 134.488 25.24 132.904 25.24ZM131.368 18.328H133.84V17.152C133.84 15.856 133.76 14.976 133.6 14.512C133.456 14.032 133.152 13.792 132.688 13.792C132.24 13.792 131.904 14.048 131.68 14.56C131.472 15.056 131.368 15.92 131.368 17.152V18.328ZM146.719 20.272V18.232C146.719 16.68 146.631 15.552 146.455 14.848C146.295 14.128 145.911 13.768 145.303 13.768C144.951 13.768 144.663 13.872 144.439 14.08C144.231 14.272 144.079 14.6 143.983 15.064C143.839 15.784 143.767 16.88 143.767 18.352V20.224C143.767 21.968 143.815 23.016 143.911 23.368C144.023 23.72 144.135 24.008 144.247 24.232C144.423 24.616 144.767 24.808 145.279 24.808C145.903 24.808 146.311 24.448 146.503 23.728C146.647 23.216 146.719 22.064 146.719 20.272ZM145.231 25.24C143.231 25.24 141.719 24.728 140.695 23.704C139.671 22.68 139.159 21.216 139.159 19.312C139.159 17.392 139.703 15.92 140.791 14.896C141.895 13.856 143.439 13.336 145.423 13.336C147.407 13.336 148.887 13.816 149.863 14.776C150.839 15.72 151.327 17.168 151.327 19.12C151.327 23.2 149.295 25.24 145.231 25.24Z" fill="black"/>
<circle cx="13" cy="13" r="13" fill="#FF9890"/>
<path fill-rule="evenodd" clip-rule="evenodd" d="M13 10C13 8.34315 14.3431 7 16 7C17.6569 7 19 8.34315 19 10C19 11.6569 17.6569 13 16 13C14.3431 13 13 11.6569 13 10ZM9 10C7.34315 10 6 11.3431 6 13C6 14.6569 7.34315 16 9 16C10.6569 16 12 14.6569 12 13C12 11.3431 10.6569 10 9 10ZM23 25C22.4477 25 22 24.5523 22 24V15C22 14.4477 22.4477 14 23 14H25C25.5523 14 26 14.4477 26 15V24C26 24.5523 25.5523 25 25 25H23ZM15.5 16.5H17.67C18.6345 15.7383 19.7834 15.2453 21 15.071V24.375C19.1 25.41 16.761 26 14 26C9.678 26 5.849 23.972 3.484 20.851C1.2796 17.9419 5.43191 17.9785 7.56837 17.9973C7.72403 17.9987 7.86898 18 8 18H10.886C10.3106 18.895 10.0032 19.936 10 21V22H18L18.001 21H11C11 18.5147 13.0147 16.5 15.5 16.5Z" fill="black"/>
</svg>
